<?xml version="1.0" encoding="iso-8859-1"?>
<!-- Generator: Adobe Illustrator 18.0.0, SVG Export Plug-In . SVG Version: 6.00 Build 0)  -->
<!DOCTYPE svg PUBLIC "-//W3C//DTD SVG 1.1//EN" "http://www.w3.org/Graphics/SVG/1.1/DTD/svg11.dtd">
<svg version="1.1" id="Capa_1" xmlns="http://www.w3.org/2000/svg" xmlns:xlink="http://www.w3.org/1999/xlink" x="0px" y="0px"
	 viewBox="0 0 312.553 312.553" style="enable-background:new 0 0 312.553 312.553;" xml:space="preserve">
<g>
	<path d="M302.553,0H10C4.477,0,0,4.478,0,10v292.553c0,5.522,4.477,10,10,10h292.553c5.523,0,10-4.478,10-10V10
		C312.553,4.478,308.076,0,302.553,0z M148.087,193.287c-9.481,8.296-21.592,12.866-34.102,12.866
		c-28.109,0-50.977-22.4-50.977-49.934c0-27.471,22.868-49.819,50.977-49.819c12.527,0,24.597,4.53,33.987,12.756
		c3.873,3.393,4.262,9.283,0.868,13.156c-3.392,3.874-9.283,4.265-13.156,0.869c-5.987-5.245-13.694-8.135-21.699-8.135
		c-17.827,0-32.33,13.984-32.33,31.173c0,17.251,14.503,31.286,32.33,31.286c7.991,0,15.741-2.931,21.822-8.252
		c3.875-3.391,9.765-2.998,13.157,0.877C152.355,184.006,151.962,189.896,148.087,193.287z M240.22,162.286
		c5.15,0,9.324,4.174,9.324,9.323s-4.174,9.323-9.324,9.323h-10.869l-3.378,14.904c-0.981,4.328-4.826,7.265-9.085,7.265
		c-0.683,0-1.376-0.075-2.069-0.232c-5.022-1.139-8.17-6.132-7.032-11.153l2.444-10.783h-20.201l-3.378,14.904
		c-0.981,4.328-4.826,7.265-9.084,7.265c-0.683,0-1.376-0.075-2.069-0.232c-5.022-1.139-8.17-6.132-7.032-11.153l2.448-10.799
		c-5.007-0.162-9.019-4.262-9.019-9.308c0-5.149,4.174-9.323,9.324-9.323h3.917l2.725-12.02h-6.642
		c-5.149,0-9.324-4.174-9.324-9.322c0-5.15,4.174-9.324,9.324-9.324h10.869l3.378-14.904c1.138-5.021,6.134-8.17,11.154-7.032
		c5.022,1.139,8.17,6.132,7.032,11.153l-2.444,10.783h20.201l3.378-14.904c1.138-5.021,6.133-8.17,11.154-7.032
		c5.022,1.139,8.17,6.132,7.032,11.153l-2.448,10.799c5.007,0.162,9.019,4.262,9.019,9.309c0,5.148-4.174,9.322-9.324,9.322h-3.917
		l-2.725,12.02H240.22z"/>
	<polygon points="194.258,162.286 214.458,162.286 217.183,150.267 196.982,150.267 	"/>
</g>
<g>
</g>
<g>
</g>
<g>
</g>
<g>
</g>
<g>
</g>
<g>
</g>
<g>
</g>
<g>
</g>
<g>
</g>
<g>
</g>
<g>
</g>
<g>
</g>
<g>
</g>
<g>
</g>
<g>
</g>
</svg>
